# xmcd CD database file
#
# Track frame offsets:
#	150
#	21187
#	38800
#	57062
#	75625
#	94815
#	107937
#	121350
#	138215
#	175012
#	183987
#	198212
#	229105
#	246620
#	256650
#	283842
#
# Disc length: 4078 seconds
#
# Revision: 0
# Processed by: cddbd v1.5.2PL0 Copyright (c) Steve Scherf et al.
# Submitted via: CDex 1.70beta2
#
DISCID=d70fec10
DTITLE=Various Artist - Instrumental Moods
DYEAR=1997
DGENRE=New Age
TTITLE0=3rd Force - In the Full Moon Light
TTITLE1=Enigma - Knocking on the Forbidden Doors
TTITLE2=Ottmar Liebert - Barcelona Nights
TTITLE3=Cusco - Montezuma
TTITLE4=Sacred Spirits - Dawa (Cradlesong)
TTITLE5=Eric Serra - Heat (From "The fifth Element")
TTITLE6=Jesse Cook - Tempest
TTITLE7=Eric Johnson - Cliffs of Dover
TTITLE8=Neal Schon - Midnight Express
TTITLE9=Massive Attack - Weather Storm
TTITLE10=Santana - Samba Pa Ti
TTITLE11=Afro Celt Sound System - Sure-As-Not (Full Whack Dub)
TTITLE12=Vanessa-Mae - Widescreen
TTITLE13=Ennio Morricone - Gabriel's Oboe (from "The Mission")
TTITLE14=David Lanz - Cristofori's Dream
TTITLE15=Craig Chaquico - Gathering Of The Tribes
EXTD=YEAR: 1997
EXTT0=
EXTT1=
EXTT2=
EXTT3=
EXTT4=
EXTT5=
EXTT6=
EXTT7=
EXTT8=
EXTT9=
EXTT10=
EXTT11=
EXTT12=
EXTT13=
EXTT14=
EXTT15=
PLAYORDER=
